<svg width="24" height="23" viewBox="0 0 24 23" fill="none" xmlns="http://www.w3.org/2000/svg">
<path d="M17.4783 13.2684C17.4335 13.2469 15.7568 12.4212 15.4588 12.3139C15.3372 12.2703 15.2068 12.2276 15.0682 12.2276C14.8418 12.2276 14.6516 12.3405 14.5035 12.5621C14.336 12.8111 13.8289 13.4038 13.6723 13.5808C13.6518 13.6042 13.6239 13.6321 13.6071 13.6321C13.5921 13.6321 13.3326 13.5253 13.2541 13.4911C11.4554 12.7098 10.0901 10.8309 9.90288 10.514C9.87615 10.4685 9.87503 10.4478 9.8748 10.4478C9.88137 10.4237 9.94186 10.3631 9.97307 10.3318C10.0644 10.2414 10.1633 10.1223 10.2591 10.0071C10.3044 9.95249 10.3498 9.89783 10.3944 9.8463C10.5333 9.6847 10.5951 9.55925 10.6668 9.41393L10.7044 9.33843C10.8794 8.99067 10.7299 8.6972 10.6816 8.60243C10.6419 8.52313 9.93394 6.81441 9.85867 6.63489C9.67766 6.2017 9.43847 6 9.10609 6C9.07525 6 9.10609 6 8.97676 6.00545C8.81927 6.0121 7.96162 6.12501 7.58242 6.36404C7.18029 6.61756 6.5 7.4257 6.5 8.84692C6.5 10.126 7.31172 11.3338 7.66023 11.7931C7.66889 11.8047 7.6848 11.8282 7.70787 11.8619C9.04255 13.8111 10.7064 15.2556 12.3931 15.9294C14.0169 16.5781 14.7858 16.653 15.223 16.653H15.223C15.4067 16.653 15.5538 16.6386 15.6835 16.6259L15.7658 16.618C16.3267 16.5683 17.5595 15.9295 17.8399 15.1503C18.0608 14.5365 18.119 13.8659 17.9721 13.6226C17.8714 13.4571 17.6979 13.3738 17.4783 13.2684Z" fill="#F7F7F7"/>
<path d="M12.2041 0C5.97503 0 0.907262 5.02968 0.907262 11.212C0.907262 13.2116 1.44239 15.1689 2.4561 16.8819L0.515814 22.6054C0.479671 22.7121 0.506554 22.8301 0.585486 22.9105C0.642463 22.9686 0.719752 23 0.798684 23C0.828927 23 0.859395 22.9954 0.889116 22.986L6.85717 21.0895C8.49032 21.9621 10.3361 22.4227 12.2042 22.4227C18.4327 22.4228 23.5 17.3936 23.5 11.212C23.5 5.02968 18.4327 0 12.2041 0ZM12.2041 20.0872C10.4464 20.0872 8.74384 19.5796 7.28035 18.6193C7.23114 18.587 7.17401 18.5704 7.11651 18.5704C7.08612 18.5704 7.05565 18.575 7.02601 18.5844L4.03638 19.5348L5.00148 16.6875C5.0327 16.5953 5.01709 16.4937 4.95959 16.4151C3.84514 14.8924 3.25602 13.0932 3.25602 11.212C3.25602 6.31753 7.27012 2.33555 12.2041 2.33555C17.1374 2.33555 21.1511 6.31753 21.1511 11.212C21.1511 16.1058 17.1376 20.0872 12.2041 20.0872Z" fill="#F7F7F7"/>
</svg>
